<?xml version="1.0" standalone="no"?><!DOCTYPE svg PUBLIC "-//W3C//DTD SVG 1.1//EN" "http://www.w3.org/Graphics/SVG/1.1/DTD/svg11.dtd"><svg t="1769147318729" class="icon" viewBox="0 0 1024 1024" version="1.1" xmlns="http://www.w3.org/2000/svg" p-id="1462" width="200" height="200" xmlns:xlink="http://www.w3.org/1999/xlink"><path d="M579.008 694.4q7.552-1.408 15.04-3.2t14.912-3.808q7.392-2.048 14.72-4.416t14.528-5.056q7.2-2.688 14.272-5.664t14.016-6.4q6.944-3.2 13.728-6.848t13.408-7.424q6.624-3.84 13.088-8t12.8-8.544q6.4-4.384 12.32-9.056t11.904-9.6q5.856-4.928 11.488-10.08t11.04-10.56q5.408-5.376 10.56-11.008t10.048-11.456q4.896-5.824 9.6-11.872t9.024-12.256q4.384-6.24 8.48-12.64t7.904-12.96q3.808-6.56 7.328-13.312t6.752-13.6q3.2-6.88 6.144-13.856t5.536-14.112q2.592-7.104 4.896-14.336t4.256-14.528q1.984-7.296 3.616-14.688t2.976-14.848q1.312-7.456 2.336-14.944t1.664-15.04q0.672-7.552 0.992-15.104t0.32-15.104q0-8.608-0.416-17.184t-1.28-17.152q-0.864-8.544-2.144-17.056t-3.008-16.928q-1.696-8.448-3.84-16.768t-4.672-16.576q-2.528-8.224-5.504-16.32t-6.4-16q-3.2-7.936-7.104-15.712t-7.872-15.36q-4.128-7.584-8.64-14.976t-9.376-14.528q-4.864-7.136-10.08-14.048T787.648 128q-5.568-6.656-11.424-13.024t-12.064-12.448q-6.176-6.08-12.8-11.872t-13.248-11.232q-6.752-5.44-13.792-10.592t-14.304-9.888q-7.264-4.768-14.784-9.184t-15.232-8.48q-7.712-4.064-15.648-7.744t-16-6.976q-8.096-3.2-16.32-6.176t-16.512-5.312q-8.384-2.496-16.864-4.576T581.568 6.72q-8.576-1.664-17.248-2.944t-17.376-2.08q-8.704-0.832-17.44-1.28T512 0q-8.768 0-17.504 0.416t-17.44 1.28q-8.704 0.832-17.376 2.112T442.432 6.72q-8.576 1.664-17.088 3.776t-16.864 4.576Q400 17.568 391.872 20.48t-16.32 6.176q-8.096 3.2-16 6.976t-15.648 7.744q-7.712 4.064-15.232 8.48t-14.784 9.184q-7.264 4.768-14.304 9.888t-13.792 10.592q-6.752 5.44-13.248 11.232t-12.8 11.872q-6.176 6.08-12.064 12.448T236.352 128q-5.568 6.656-10.752 13.568t-10.08 14.048q-4.864 7.136-9.376 14.528t-8.64 14.976q-4.128 7.584-7.872 15.36t-7.104 15.712l-6.4 16q-3.2 8.064-5.504 16.32-2.528 8.224-4.672 16.576t-3.84 16.768q-1.696 8.448-3.008 16.928t-2.144 17.056q-0.864 8.544-1.28 17.152t-0.416 17.184q0 7.552 0.32 15.104t0.992 15.104q0.672 7.52 1.664 15.04t2.304 14.944q1.312 7.456 2.976 14.848t3.616 14.688q1.984 7.296 4.256 14.528t4.896 14.336q2.592 7.104 5.536 14.112t6.144 13.856q3.2 6.88 6.752 13.6t7.328 13.312q3.808 6.56 7.904 12.992t8.48 12.64q4.384 6.24 9.024 12.256t9.6 11.872q4.896 5.824 10.048 11.456t10.56 11.008q5.408 5.376 11.04 10.56t11.488 10.08q5.856 4.928 11.904 9.6t12.32 9.056q6.4 4.384 12.8 8.544t13.088 8q6.624 3.84 13.408 7.424t13.728 6.848l14.016 6.4q7.072 3.2 14.272 5.664 7.2 2.688 14.528 5.056t14.72 4.416q7.424 2.048 14.912 3.808t15.04 3.2L512 808.416z" fill="#165DFF" p-id="1463"></path><path d="M128 889.28a384 134.752 0 1 0 768 0 384 134.752 0 1 0-768 0Z" fill="#165DFF" fill-opacity="0.2" p-id="1464"></path><path d="M402.272 875.776a109.728 40.416 0 1 0 219.456 0 109.728 40.416 0 1 0-219.456 0Z" fill="#165DFF" p-id="1465"></path><path d="M599.968 325.632a118.752 118.752 0 0 1 106.4 67.2L768 342.464l-341.6-224H387.2L333.984 202.464v28l187.616 120.384a125.152 125.152 0 0 1 78.368-25.216z m-89.6 36.384C423.584 306.048 333.984 247.264 333.984 247.264v44.8l156.8 97.984a169.952 169.952 0 0 1 19.584-28z m-95.168 42.016H367.584v-61.568L320 334.048v195.968l47.584-16.8v-67.2H443.2l33.6-50.368-42.016-25.216z m140 56h36.384l-19.616-50.368z" fill="#FFFFFF" p-id="1466"></path><path d="M681.152 513.216h-28v-134.4h25.184a105.6 105.6 0 0 0-81.152-36.384 112 112 0 1 0 112 112 108.16 108.16 0 0 0-30.784-75.584v134.4z m-69.984 0l-11.2-30.784h-53.184l-11.2 30.784h-28l53.184-134.4h28l53.184 134.4z" fill="#FFFFFF" p-id="1467"></path></svg>